<svg xmlns="http://www.w3.org/2000/svg" width="91.758" height="83.344"><path d="M26.047 57.364a1 1 0 0 1-.373-1.928l38.513-15.53a1 1 0 0 1 .746 1.856L26.42 57.291a1 1 0 0 1-.373.073" data-name="Path 215"/><path d="M21.894 83.04c-.091 0-.263.329-.355.3L.727 77.475a1 1 0 1 1 .547-1.924l20.533 5.827a1 1 0 0 1 .688 1.235c-.125.442-.165.427-.601.427" data-name="Path 216"/><path d="M1 77.516a1 1 0 0 1-1-1V1A1 1 0 0 1 1.274.038l20.041 9.725c.227.065.677.653.805.832.17.239.462.223.375.526a1 1 0 0 1-1.235.689L2 2.324v74.192a1 1 0 0 1-1 1" data-name="Path 217"/><path fill="#8700c1" d="m21.26 9.736.274 73.606 70.224-30.665Zm4.881 8.44 55.148 33.51-55.2 24.019Z" data-name="Path 218"/></svg>