<svg xmlns="http://www.w3.org/2000/svg" width="20" height="19" fill="none"><g clip-path="url(#a)"><path fill="url(#b)" d="M11.18 18.49H9.39c-5.1 0-9.24-4.14-9.24-9.24C.15 4.14 4.29 0 9.4 0h1.79v18.49z"/><path fill="url(#c)" d="M10.75 18.5a9.25 9.25 0 1 0 0-18.5 9.25 9.25 0 0 0 0 18.5"/><path fill="url(#d)" d="M10.75 0c-5.1 0-9.24 4.14-9.24 9.24s4.14 9.25 9.24 9.25S20 14.35 20 9.24 15.86 0 10.75 0m0 16.52c-4.01 0-7.27-3.26-7.27-7.28a7.27 7.27 0 0 1 7.27-7.27c4.01 0 7.28 3.26 7.28 7.27s-3.26 7.28-7.28 7.28"/><path fill="url(#e)" d="M5.83 14.15C3.06 11.38 2.99 6.9 5.65 4.06c-.06.05-.13.11-.19.18-2.84 2.84-2.84 7.45 0 10.28s7.45 2.84 10.29 0c.06-.06.13-.13.18-.19-2.84 2.66-7.32 2.6-10.1-.18"/><path fill="url(#f)" d="M15.82 14.48a7.24 7.24 0 0 0 1.95-4.95 7.27 7.27 0 0 0-7.27-7.27c-1.96 0-3.74.77-5.05 2.04a7.24 7.24 0 0 1 5.33-2.33c4.01 0 7.27 3.26 7.27 7.27 0 2.06-.85 3.92-2.23 5.24"/><path fill="url(#g)" d="M14.03 7.11h-2.06c.11.2.21.42.26.65h1.8v1.3h-1.79a2.61 2.61 0 0 1-2.16 1.93l2.5 3.04-1.01.83-3.36-4.09a.68.68 0 0 1-.09-.7c.11-.23.34-.37.59-.37h.99c.48 0 .9-.26 1.12-.65H7.65v-1.3h3.17c-.22-.39-.64-.65-1.12-.65H7.65V5.8h6.37v1.3z"/><path fill="#fff" d="M13.84 6.85h-2.06c.11.2.21.42.26.65h1.8v1.3h-1.79a2.61 2.61 0 0 1-2.16 1.93l2.5 3.04-1.01.83-3.36-4.09a.68.68 0 0 1-.09-.7.65.65 0 0 1 .59-.37h.99c.48 0 .9-.26 1.12-.65H7.46v-1.3h3.17c-.22-.39-.64-.65-1.12-.65H7.46v-1.3h6.37v1.3z"/></g><defs><linearGradient id="b" x1="5.67" x2="5.67" y1="18.06" y2=".27" gradientUnits="userSpaceOnUse"><stop stop-color="#C25441"/><stop offset=".49" stop-color="#D68683"/><stop offset=".6" stop-color="#D4827D"/><stop offset=".74" stop-color="#CF766E"/><stop offset=".9" stop-color="#C86355"/><stop offset="1" stop-color="#C25441"/></linearGradient><linearGradient id="c" x1="17.59" x2="4.52" y1="16.09" y2="3.01" gradientUnits="userSpaceOnUse"><stop stop-color="#D68683"/><stop offset=".331" stop-color="#F39293"/><stop offset=".5" stop-color="#F39293"/><stop offset=".639" stop-color="#F39293"/><stop offset="1" stop-color="#D68683"/></linearGradient><linearGradient id="d" x1="16.741" x2="3.671" y1="15.23" y2="2.16" gradientUnits="userSpaceOnUse"><stop stop-color="#D68683"/><stop offset=".63" stop-color="#E8CDC3"/><stop offset=".73" stop-color="#E0B0A9"/><stop offset=".83" stop-color="#DA9894"/><stop offset=".92" stop-color="#D78A87"/><stop offset="1" stop-color="#D68683"/></linearGradient><linearGradient id="e" x1="3.34" x2="15.93" y1="10.36" y2="10.36" gradientUnits="userSpaceOnUse"><stop stop-color="#E8CDC3"/><stop offset="1" stop-color="#E8CDC3"/></linearGradient><linearGradient id="f" x1="5.45" x2="18.05" y1="8.23" y2="8.23" gradientUnits="userSpaceOnUse"><stop stop-color="#C25441"/><stop offset="1" stop-color="#C25441"/></linearGradient><linearGradient id="g" x1="7.66" x2="14.03" y1="10.34" y2="10.34" gradientUnits="userSpaceOnUse"><stop stop-color="#C25441"/><stop offset="1" stop-color="#C25441"/></linearGradient><clipPath id="a"><path fill="#fff" d="M.15 0H20v18.49H.15z"/></clipPath></defs></svg>