<svg xmlns="http://www.w3.org/2000/svg" width="93.378" height="87.656"><g data-name="Group 72"><path fill="#8700c1" d="m25.374 68.537 50.187-21.272 4.417 2.761-54.421 23.665Z" data-name="Path 219"/><path fill="#8700c1" d="m7.332 4.548.316 77.59 13.279 4.343-6.955-2.687.158-75.032Z" data-name="Path 220"/><path d="M21.533 87.657a1 1 0 0 1-1-1V12.848a1 1 0 0 1 1.532-.847L92.91 56.508a1 1 0 0 1-.151 1.771l-70.844 29.3a1 1 0 0 1-.382.078m1-73v70.5l67.673-27.99Z" data-name="Path 221"/><path d="M25.147 62.06a1 1 0 0 1-.373-1.928l44.066-17.7a1 1 0 0 1 .747 1.855L25.52 61.992a1.022 1.022 0 0 1-.373.068" data-name="Path 222"/><path d="M1 81.831a1 1 0 0 1-1-1V1A1 1 0 0 1 1.273.038l20.533 11.848a1 1 0 1 1-.547 1.924L2 2.325v78.507a1 1 0 0 1-1 .999" data-name="Path 223"/><path d="M21.534 87.657a.971.971 0 0 1-.275-.038L.726 81.793a1 1 0 0 1 .547-1.924l20.533 5.827a1 1 0 0 1-.272 1.961" data-name="Path 224"/><path d="M24.924 82.278a1 1 0 0 1-1-1V15.497a1 1 0 0 1 2 0v64.271l61.791-26.177a1 1 0 0 1 .78 1.842L25.314 82.198a1 1 0 0 1-.39.08" data-name="Path 225"/></g></svg>